<svg width="15" height="15" viewBox="0 0 15 15" fill="none" xmlns="http://www.w3.org/2000/svg">
<mask id="path-1-inside-1_0_36" fill="white">
<path d="M15 14.9999H0L0.0500428 14.7928C0.162637 14.3117 1.1447 10.0489 1.44496 9.51433C1.63887 9.17357 2.65221 8.84618 4.17848 8.39183C4.56631 8.27824 4.92911 8.16465 5.20434 8.07111C5.57965 7.94416 5.66097 7.89072 5.67348 7.87736C5.70475 7.83059 5.77356 7.68358 5.81109 7.2426L6.12385 7.26933C6.09258 7.66354 6.03003 7.92413 5.92994 8.06444L5.90492 8.09784C5.84237 8.17134 5.72352 8.24483 5.29817 8.38514C5.01668 8.47869 4.65388 8.59228 4.2598 8.70587C3.35905 8.97313 1.85154 9.42747 1.70767 9.68137C1.50751 10.0355 0.831944 12.7749 0.394079 14.6592H14.5997C14.1618 12.7749 13.4862 10.0422 13.2861 9.68137C13.1422 9.42747 11.6347 8.97981 10.7402 8.70587C10.3899 8.59896 10.0584 8.50542 9.79566 8.41188C9.43286 8.29161 9.23895 8.21143 9.14512 8.14462L9.09508 8.09784C8.98874 7.97089 8.91993 7.73704 8.8824 7.3562L9.19516 7.32278C9.23269 7.73703 9.30776 7.85062 9.32652 7.87067C9.3578 7.8974 9.47665 7.95754 9.88949 8.09117C10.1522 8.17803 10.4837 8.27825 10.8278 8.37848C12.354 8.83282 13.3674 9.16021 13.555 9.50097C13.8616 10.0355 14.8436 14.2917 14.95 14.7794L15 14.9999Z"/>
</mask>
<path d="M15 14.9999H0L0.0500428 14.7928C0.162637 14.3117 1.1447 10.0489 1.44496 9.51433C1.63887 9.17357 2.65221 8.84618 4.17848 8.39183C4.56631 8.27824 4.92911 8.16465 5.20434 8.07111C5.57965 7.94416 5.66097 7.89072 5.67348 7.87736C5.70475 7.83059 5.77356 7.68358 5.81109 7.2426L6.12385 7.26933C6.09258 7.66354 6.03003 7.92413 5.92994 8.06444L5.90492 8.09784C5.84237 8.17134 5.72352 8.24483 5.29817 8.38514C5.01668 8.47869 4.65388 8.59228 4.2598 8.70587C3.35905 8.97313 1.85154 9.42747 1.70767 9.68137C1.50751 10.0355 0.831944 12.7749 0.394079 14.6592H14.5997C14.1618 12.7749 13.4862 10.0422 13.2861 9.68137C13.1422 9.42747 11.6347 8.97981 10.7402 8.70587C10.3899 8.59896 10.0584 8.50542 9.79566 8.41188C9.43286 8.29161 9.23895 8.21143 9.14512 8.14462L9.09508 8.09784C8.98874 7.97089 8.91993 7.73704 8.8824 7.3562L9.19516 7.32278C9.23269 7.73703 9.30776 7.85062 9.32652 7.87067C9.3578 7.8974 9.47665 7.95754 9.88949 8.09117C10.1522 8.17803 10.4837 8.27825 10.8278 8.37848C12.354 8.83282 13.3674 9.16021 13.555 9.50097C13.8616 10.0355 14.8436 14.2917 14.95 14.7794L15 14.9999Z" fill="#414042"/>
<path d="M15 14.9999V15.9999H16.2524L15.9752 14.7786L15 14.9999ZM0 14.9999L-0.972032 14.7651L-1.27038 15.9999H0V14.9999ZM0.0500428 14.7928L1.0221 15.0276L1.02373 15.0207L0.0500428 14.7928ZM1.44496 9.51433L0.575811 9.01974L0.573087 9.02459L1.44496 9.51433ZM4.17848 8.39183L3.8974 7.43214L3.89317 7.4334L4.17848 8.39183ZM5.20434 8.07111L4.88392 7.12383L4.88255 7.1243L5.20434 8.07111ZM5.67348 7.87736L6.40349 8.56079L6.45933 8.50115L6.50475 8.43323L5.67348 7.87736ZM5.81109 7.2426L5.89625 6.24623L4.89953 6.16104L4.8147 7.1578L5.81109 7.2426ZM6.12385 7.26933L7.12072 7.34842L7.19933 6.35761L6.20901 6.27296L6.12385 7.26933ZM5.92994 8.06444L6.7303 8.66397L6.73729 8.65463L6.74406 8.64514L5.92994 8.06444ZM5.90492 8.09784L6.66646 8.74597L6.68662 8.72227L6.70528 8.69737L5.90492 8.09784ZM5.29817 8.38514L4.9849 7.43548L4.98281 7.43617L5.29817 8.38514ZM4.2598 8.70587L3.98283 7.74495L3.97535 7.74718L4.2598 8.70587ZM1.70767 9.68137L0.83764 9.18837L0.837121 9.18929L1.70767 9.68137ZM0.394079 14.6592L-0.579966 14.4328L-0.864955 15.6592H0.394079V14.6592ZM14.5997 14.6592V15.6592H15.8587L15.5737 14.4328L14.5997 14.6592ZM13.2861 9.68137L14.1606 9.19623L14.1561 9.18837L13.2861 9.68137ZM10.7402 8.70587L11.033 7.7497L11.0321 7.74942L10.7402 8.70587ZM9.79566 8.41188L10.1311 7.46981L10.1207 7.46613L10.1103 7.46267L9.79566 8.41188ZM9.14512 8.14462L8.46224 8.87515L8.51086 8.92059L8.56506 8.95919L9.14512 8.14462ZM9.09508 8.09784L8.32849 8.73997L8.36765 8.78673L8.4122 8.82837L9.09508 8.09784ZM8.8824 7.3562L8.77615 6.36186L7.78996 6.46724L7.88722 7.45427L8.8824 7.3562ZM9.19516 7.32278L10.1911 7.23255L10.0994 6.22046L9.08891 6.32844L9.19516 7.32278ZM9.32652 7.87067L8.59651 8.5541L8.63455 8.59474L8.67688 8.63091L9.32652 7.87067ZM9.88949 8.09117L10.2034 7.1417L10.1974 7.13977L9.88949 8.09117ZM10.8278 8.37848L11.1131 7.42002L11.1075 7.41839L10.8278 8.37848ZM13.555 9.50097L12.6791 9.98336L12.6833 9.99092L12.6875 9.99841L13.555 9.50097ZM14.95 14.7794L13.9729 14.9924L13.9748 15.0007L14.95 14.7794ZM15 13.9999H0V15.9999H15V13.9999ZM0.972032 15.2348L1.02208 15.0276L-0.921989 14.5579L-0.972032 14.7651L0.972032 15.2348ZM1.02373 15.0207C1.08079 14.7769 1.3525 13.5994 1.64747 12.4153C1.79514 11.8226 1.94669 11.2361 2.07861 10.7684C2.14476 10.5339 2.20364 10.3376 2.25281 10.189C2.31074 10.0139 2.3327 9.97581 2.31682 10.0041L0.573087 9.02459C0.482149 9.18648 0.407735 9.39851 0.354056 9.56073C0.291604 9.74947 0.22362 9.97766 0.153721 10.2255C0.0135383 10.7224 -0.143765 11.332 -0.293214 11.9319C-0.592488 13.1332 -0.868111 14.3276 -0.923644 14.5649L1.02373 15.0207ZM2.31409 10.0089C2.2292 10.1581 2.14009 10.1833 2.24521 10.1216C2.32431 10.0752 2.46021 10.0106 2.67297 9.92829C3.09784 9.76388 3.69424 9.57935 4.46379 9.35027L3.89317 7.4334C3.13645 7.65866 2.46304 7.865 1.9512 8.06307C1.6956 8.16197 1.44641 8.2715 1.23328 8.39652C1.04617 8.50628 0.757667 8.7002 0.575825 9.01975L2.31409 10.0089ZM4.45956 9.35152C4.85672 9.23519 5.23374 9.11729 5.52613 9.01792L4.88255 7.1243C4.62447 7.21201 4.27589 7.32129 3.89741 7.43215L4.45956 9.35152ZM5.52475 9.01838C5.72821 8.94956 5.8754 8.89292 5.98461 8.84388C6.03906 8.81943 6.09567 8.79171 6.15063 8.75973C6.18324 8.74075 6.29625 8.67534 6.40349 8.56079L4.94346 7.19393C4.97644 7.1587 5.00602 7.13235 5.02645 7.11516C5.04787 7.09714 5.0667 7.08293 5.08117 7.07252C5.10954 7.05212 5.13226 7.03835 5.14472 7.03111C5.16919 7.01687 5.17966 7.01295 5.16531 7.0194C5.15269 7.02506 5.12554 7.03665 5.07841 7.0546C5.03168 7.07239 4.96827 7.0953 4.88392 7.12383L5.52475 9.01838ZM6.50475 8.43323C6.68114 8.16944 6.76625 7.81197 6.80749 7.3274L4.8147 7.1578C4.79922 7.33968 4.77996 7.42646 4.77308 7.45251C4.76568 7.48052 4.77803 7.41746 4.84221 7.32148L6.50475 8.43323ZM5.72593 8.23897L6.03869 8.2657L6.20901 6.27296L5.89625 6.24623L5.72593 8.23897ZM5.12699 7.19024C5.11373 7.35729 5.09605 7.46395 5.08096 7.52603C5.07375 7.55571 5.0695 7.56525 5.0715 7.56032C5.07324 7.55602 5.0856 7.52611 5.11582 7.48374L6.74406 8.64514C6.89845 8.42869 6.97773 8.19042 7.02444 7.99817C7.07347 7.79633 7.1027 7.57559 7.12072 7.34842L5.12699 7.19024ZM5.12959 7.46491L5.10457 7.49831L6.70528 8.69737L6.7303 8.66397L5.12959 7.46491ZM5.14339 7.44971C5.17985 7.40688 5.21866 7.37208 5.25371 7.34648C5.28429 7.32415 5.30175 7.31635 5.29237 7.32102C5.28285 7.32575 5.25633 7.33809 5.20348 7.35849C5.15134 7.37862 5.08058 7.40391 4.9849 7.43548L5.61144 9.33481C5.99963 9.20675 6.39528 9.06459 6.66646 8.74597L5.14339 7.44971ZM4.98281 7.43617C4.71424 7.52542 4.36424 7.63505 3.98284 7.74498L4.53676 9.66675C4.94352 9.54951 5.31913 9.43195 5.61353 9.33412L4.98281 7.43617ZM3.97535 7.74718C3.52735 7.8801 2.90222 8.06716 2.3677 8.25542C2.10285 8.34871 1.8361 8.45062 1.61542 8.55425C1.50644 8.60542 1.38521 8.66786 1.27301 8.74149C1.19414 8.79325 0.980207 8.93678 0.837641 9.18837L2.5777 10.1744C2.51521 10.2847 2.44674 10.3498 2.42108 10.373C2.40491 10.3877 2.39204 10.3978 2.38434 10.4036C2.37647 10.4095 2.3715 10.4128 2.37038 10.4135C2.36879 10.4146 2.3755 10.4101 2.39344 10.4005C2.41082 10.3911 2.43456 10.3791 2.46552 10.3646C2.59611 10.3033 2.78951 10.2273 3.03211 10.1418C3.5125 9.97264 4.0915 9.79889 4.54426 9.66456L3.97535 7.74718ZM0.837121 9.18929C0.760999 9.32396 0.70276 9.48722 0.665568 9.59592C0.620223 9.72845 0.570973 9.88783 0.519788 10.0628C0.417045 10.4139 0.297067 10.8604 0.171663 11.3469C-0.0796113 12.3217 -0.359919 13.4859 -0.579966 14.4328L1.36812 14.8855C1.58594 13.9482 1.86235 12.8005 2.10836 11.8461C2.2316 11.3679 2.34541 10.9453 2.43932 10.6244C2.48646 10.4633 2.52625 10.3358 2.55787 10.2434C2.59765 10.1271 2.6043 10.1273 2.57823 10.1734L0.837121 9.18929ZM0.394079 15.6592H14.5997V13.6592H0.394079V15.6592ZM15.5737 14.4328C15.3536 13.4856 15.0733 12.3231 14.822 11.3492C14.6966 10.8631 14.5767 10.4171 14.474 10.0658C14.4229 9.89083 14.3737 9.73153 14.3286 9.59902C14.2911 9.48898 14.2339 9.32857 14.1605 9.19625L12.4116 10.1665C12.3883 10.1244 12.396 10.1283 12.4355 10.2441C12.4673 10.3375 12.5072 10.4656 12.5544 10.627C12.6483 10.9485 12.7622 11.3711 12.8854 11.8488C13.1315 12.8025 13.4079 13.9485 13.6256 14.8855L15.5737 14.4328ZM14.1561 9.18837C14.013 8.93584 13.7981 8.79229 13.7191 8.74067C13.6067 8.66721 13.4853 8.60506 13.3764 8.55425C13.156 8.45135 12.8896 8.3502 12.6259 8.2576C12.0951 8.07125 11.47 7.88354 11.033 7.7497L10.4474 9.66203C10.9049 9.80214 11.4808 9.97523 11.9633 10.1447C12.2063 10.23 12.3997 10.3055 12.5303 10.3665C12.5613 10.3809 12.585 10.3928 12.6023 10.4021C12.6202 10.4117 12.6268 10.4161 12.625 10.4149C12.625 10.4149 12.6042 10.4016 12.5736 10.374C12.5477 10.3506 12.4788 10.2851 12.416 10.1744L14.1561 9.18837ZM11.0321 7.74942C10.649 7.63251 10.3651 7.55311 10.1311 7.46981L9.46024 9.35394C9.7517 9.45772 10.1308 9.56541 10.4483 9.66232L11.0321 7.74942ZM10.1103 7.46267C9.93792 7.40552 9.82403 7.36387 9.75001 7.33341C9.71378 7.3185 9.69473 7.30939 9.68774 7.30584C9.67934 7.30158 9.69584 7.30915 9.72518 7.33004L8.56506 8.95919C8.80412 9.12943 9.1513 9.25178 9.481 9.36108L10.1103 7.46267ZM9.828 7.41408L9.77796 7.36731L8.4122 8.82837L8.46224 8.87515L9.828 7.41408ZM9.86167 7.45571C9.89777 7.49881 9.91632 7.53369 9.92346 7.54855C9.93049 7.56316 9.92928 7.56421 9.92374 7.54498C9.9116 7.50291 9.89303 7.4149 9.87758 7.25812L7.88722 7.45427C7.92551 7.84281 8.00829 8.35771 8.32849 8.73997L9.86167 7.45571ZM8.98865 8.35053L9.30141 8.31711L9.08891 6.32844L8.77615 6.36186L8.98865 8.35053ZM8.19924 7.413C8.22228 7.66728 8.2604 7.87299 8.31328 8.04244C8.36028 8.19306 8.44099 8.38798 8.59651 8.5541L10.0565 7.18724C10.0984 7.23195 10.1279 7.27213 10.1469 7.30044C10.1672 7.33056 10.182 7.35686 10.1925 7.37726C10.2133 7.41759 10.2215 7.44359 10.2225 7.44666C10.2238 7.45074 10.2056 7.39253 10.1911 7.23255L8.19924 7.413ZM8.67688 8.63091C8.82752 8.75963 9.00329 8.83222 9.08429 8.86556C9.20344 8.9146 9.3637 8.97206 9.58154 9.04257L10.1974 7.13977C10.0024 7.07665 9.89686 7.03722 9.84555 7.01611C9.81989 7.00554 9.81887 7.00406 9.83255 7.01121C9.8399 7.01505 9.85607 7.02375 9.87771 7.03745C9.89806 7.05034 9.93398 7.07438 9.97617 7.11043L8.67688 8.63091ZM9.57558 9.04063C9.85526 9.13309 10.2002 9.23722 10.5481 9.33857L11.1075 7.41839C10.7673 7.31929 10.4492 7.22297 10.2034 7.14172L9.57558 9.04063ZM10.5425 9.33691C11.3122 9.56604 11.9082 9.75047 12.332 9.91473C12.5443 9.99702 12.6788 10.0613 12.7561 10.1069C12.8605 10.1685 12.7654 10.1401 12.6791 9.98336L14.431 9.01859C14.2509 8.69147 13.9588 8.49436 13.7726 8.3845C13.5595 8.25873 13.3101 8.14886 13.0548 8.04991C12.5434 7.85169 11.8697 7.64526 11.1131 7.42004L10.5425 9.33691ZM12.6875 9.99841C12.6702 9.96809 12.6919 10.004 12.7503 10.1786C12.7998 10.3264 12.859 10.5219 12.9254 10.7558C13.0579 11.2224 13.2097 11.8077 13.3573 12.3996C13.6524 13.5835 13.9222 14.7598 13.9729 14.9924L15.927 14.5664C15.8714 14.3113 15.597 13.1156 15.2979 11.9158C15.1483 11.316 14.9905 10.7065 14.8493 10.2094C14.7789 9.96161 14.7103 9.73309 14.6469 9.54384C14.5926 9.38156 14.5166 9.16749 14.4225 9.00354L12.6875 9.99841ZM13.9748 15.0007L14.0248 15.2212L15.9752 14.7786L15.9252 14.5581L13.9748 15.0007Z" fill="black" mask="url(#path-1-inside-1_0_36)"/>
<mask id="path-3-inside-2_0_36" fill="white">
<path d="M5.29816 8.39866L5.20433 8.07794C5.57964 7.95099 5.66096 7.89753 5.67347 7.88417L5.92993 8.07125L5.90492 8.10467C5.84862 8.17817 5.72351 8.25167 5.29816 8.39866Z"/>
</mask>
<path d="M5.29816 8.39866L5.20433 8.07794C5.57964 7.95099 5.66096 7.89753 5.67347 7.88417L5.92993 8.07125L5.90492 8.10467C5.84862 8.17817 5.72351 8.25167 5.29816 8.39866Z" fill="#414042"/>
<path d="M5.29816 8.39866L4.33839 8.67945L4.63302 9.68655L5.62479 9.34382L5.29816 8.39866ZM5.20433 8.07794L4.88391 7.13067L3.97521 7.43804L4.24456 8.35873L5.20433 8.07794ZM5.67347 7.88417L6.26281 7.07628L5.54808 6.55491L4.94346 7.20074L5.67347 7.88417ZM5.92993 8.07125L6.73046 8.67055L7.33723 7.86004L6.51927 7.26336L5.92993 8.07125ZM5.90492 8.10467L6.69884 8.7128L6.70545 8.70397L5.90492 8.10467ZM6.25793 8.11788L6.1641 7.79716L4.24456 8.35873L4.33839 8.67945L6.25793 8.11788ZM5.52475 9.02522C5.72822 8.95639 5.87543 8.89974 5.98466 8.85068C6.03912 8.82622 6.09574 8.79849 6.15071 8.7665C6.18335 8.7475 6.29629 8.6821 6.40349 8.5676L4.94346 7.20074C4.97641 7.16554 5.00598 7.1392 5.0264 7.12202C5.0478 7.104 5.06663 7.0898 5.08109 7.07939C5.10945 7.05898 5.13217 7.04522 5.14463 7.03797C5.16911 7.02372 5.17959 7.0198 5.16524 7.02624C5.15264 7.03191 5.1255 7.04349 5.07837 7.06144C5.03166 7.07923 4.96826 7.10213 4.88391 7.13067L5.52475 9.02522ZM5.08414 8.69206L5.3406 8.87914L6.51927 7.26336L6.26281 7.07628L5.08414 8.69206ZM5.12941 7.47196L5.10439 7.50538L6.70545 8.70397L6.73046 8.67055L5.12941 7.47196ZM5.11104 7.49659C5.16048 7.43205 5.21148 7.38669 5.25001 7.35809C5.28388 7.33293 5.30322 7.32441 5.2912 7.33044C5.27988 7.33612 5.25131 7.34949 5.19598 7.37143C5.14153 7.39302 5.06873 7.41992 4.97153 7.45351L5.62479 9.34382C5.8475 9.26685 6.03605 9.19441 6.18867 9.11777C6.34378 9.03989 6.53998 8.92008 6.69879 8.71276L5.11104 7.49659Z" fill="black" mask="url(#path-3-inside-2_0_36)"/>
<mask id="path-5-inside-3_0_36" fill="white">
<path d="M7.49372 8.07815C6.97453 8.07815 6.48037 7.89106 6.0988 7.5503C5.49205 7.00909 5.12925 6.22067 4.92908 5.65942C4.80398 5.3053 4.74142 4.93113 4.74142 4.55028V2.8064H10.2523V4.55028C10.2523 4.93113 10.1897 5.3053 10.0584 5.65942C9.85819 6.22067 9.49538 7.00909 8.88863 7.5503C8.50706 7.89106 8.0129 8.07815 7.49372 8.07815ZM5.05419 3.14048V4.55028C5.05419 4.89104 5.11048 5.22511 5.22308 5.54583C5.41073 6.07367 5.74851 6.80198 6.30523 7.29642C6.95577 7.87771 8.04418 7.87771 8.68846 7.29642C9.24518 6.80198 9.58296 6.06699 9.77061 5.54583C9.88321 5.23179 9.93951 4.89772 9.93951 4.55028V3.14048H5.05419Z"/>
</mask>
<path d="M7.49372 8.07815C6.97453 8.07815 6.48037 7.89106 6.0988 7.5503C5.49205 7.00909 5.12925 6.22067 4.92908 5.65942C4.80398 5.3053 4.74142 4.93113 4.74142 4.55028V2.8064H10.2523V4.55028C10.2523 4.93113 10.1897 5.3053 10.0584 5.65942C9.85819 6.22067 9.49538 7.00909 8.88863 7.5503C8.50706 7.89106 8.0129 8.07815 7.49372 8.07815ZM5.05419 3.14048V4.55028C5.05419 4.89104 5.11048 5.22511 5.22308 5.54583C5.41073 6.07367 5.74851 6.80198 6.30523 7.29642C6.95577 7.87771 8.04418 7.87771 8.68846 7.29642C9.24518 6.80198 9.58296 6.06699 9.77061 5.54583C9.88321 5.23179 9.93951 4.89772 9.93951 4.55028V3.14048H5.05419Z" fill="#414042"/>
<path d="M6.0988 7.5503L6.7649 6.80443L6.76445 6.80403L6.0988 7.5503ZM4.92908 5.65942L3.98619 5.99253L3.98719 5.99534L4.92908 5.65942ZM4.74142 2.8064V1.8064H3.74142V2.8064H4.74142ZM10.2523 2.8064H11.2523V1.8064H10.2523V2.8064ZM10.0584 5.65942L9.12071 5.31161L9.11646 5.3235L10.0584 5.65942ZM8.88863 7.5503L8.22298 6.80403L8.22253 6.80443L8.88863 7.5503ZM5.05419 3.14048V2.14048H4.05419V3.14048H5.05419ZM5.22308 5.54583L4.27953 5.87708L4.28085 5.8808L5.22308 5.54583ZM6.30523 7.29642L6.97154 6.55073L6.96928 6.54873L6.30523 7.29642ZM8.68846 7.29642L8.02439 6.5487L8.01858 6.55395L8.68846 7.29642ZM9.77061 5.54583L10.7115 5.88461L10.7119 5.88333L9.77061 5.54583ZM9.93951 3.14048H10.9395V2.14048H9.93951V3.14048ZM7.49372 7.07815C7.21641 7.07815 6.96036 6.97898 6.7649 6.80443L5.43271 8.29616C6.00039 8.80313 6.73266 9.07815 7.49372 9.07815V7.07815ZM6.76445 6.80403C6.34683 6.43153 6.05338 5.83495 5.87097 5.3235L3.98719 5.99534C4.20512 6.60639 4.63727 7.58666 5.43316 8.29656L6.76445 6.80403ZM5.87197 5.32632C5.78587 5.08259 5.74142 4.82132 5.74142 4.55028H3.74142C3.74142 5.04093 3.82209 5.52801 3.98619 5.99252L5.87197 5.32632ZM5.74142 4.55028V2.8064H3.74142V4.55028H5.74142ZM4.74142 3.8064H10.2523V1.8064H4.74142V3.8064ZM9.25227 2.8064V4.55028H11.2523V2.8064H9.25227ZM9.25227 4.55028C9.25227 4.82124 9.20789 5.0768 9.12078 5.31164L10.9959 6.00721C11.1715 5.5338 11.2523 5.04102 11.2523 4.55028H9.25227ZM9.11646 5.3235C8.93406 5.83495 8.6406 6.43152 8.22298 6.80403L9.55428 8.29656C10.3502 7.58666 10.7823 6.6064 11.0002 5.99534L9.11646 5.3235ZM8.22253 6.80443C8.02708 6.97898 7.77102 7.07815 7.49372 7.07815V9.07815C8.25477 9.07815 8.98705 8.80313 9.55473 8.29616L8.22253 6.80443ZM4.05419 3.14048V4.55028H6.05419V3.14048H4.05419ZM4.05419 4.55028C4.05419 5.00243 4.1291 5.44859 4.27953 5.87708L6.16662 5.21458C6.09186 5.00163 6.05419 4.77964 6.05419 4.55028H4.05419ZM4.28085 5.8808C4.48662 6.45959 4.89411 7.38061 5.64118 8.0441L6.96928 6.54873C6.60291 6.22335 6.33485 5.68775 6.1653 5.21085L4.28085 5.8808ZM5.63892 8.04209C6.66711 8.96084 8.33165 8.9652 9.35834 8.03888L8.01858 6.55395C7.75671 6.79022 7.24443 6.79459 6.97153 6.55074L5.63892 8.04209ZM9.35251 8.0441C10.1007 7.37958 10.5079 6.44999 10.7115 5.88461L8.82975 5.20705C8.65801 5.68399 8.38962 6.22438 8.02441 6.54873L9.35251 8.0441ZM10.7119 5.88333C10.8653 5.45552 10.9395 5.00678 10.9395 4.55028H8.93951C8.93951 4.78866 8.90109 5.00806 8.82929 5.20832L10.7119 5.88333ZM10.9395 4.55028V3.14048H8.93951V4.55028H10.9395ZM9.93951 2.14048H5.05419V4.14048H9.93951V2.14048Z" fill="black" mask="url(#path-5-inside-3_0_36)"/>
<mask id="path-7-inside-4_0_36" fill="white">
<path d="M10.2773 3.14035H4.71645V2.97331C4.71645 1.33632 5.96123 0 7.50002 0C9.03254 0 10.2836 1.32964 10.2836 2.97331V3.14035H10.2773ZM5.02921 2.80627H9.95831C9.877 1.42987 8.8011 0.334079 7.49376 0.334079C6.18642 0.34076 5.11052 1.42987 5.02921 2.80627Z"/>
</mask>
<path d="M10.2773 3.14035H4.71645V2.97331C4.71645 1.33632 5.96123 0 7.50002 0C9.03254 0 10.2836 1.32964 10.2836 2.97331V3.14035H10.2773ZM5.02921 2.80627H9.95831C9.877 1.42987 8.8011 0.334079 7.49376 0.334079C6.18642 0.34076 5.11052 1.42987 5.02921 2.80627Z" fill="#414042"/>
<path d="M4.71645 3.14035H3.71645V4.14035H4.71645V3.14035ZM10.2836 3.14035V4.14035H11.2836V3.14035H10.2836ZM5.02921 2.80627L4.03095 2.74729L3.96838 3.80627H5.02921V2.80627ZM9.95831 2.80627V3.80627H11.0191L10.9566 2.74729L9.95831 2.80627ZM7.49376 0.334079L7.49376 -0.665934L7.48865 -0.665908L7.49376 0.334079ZM10.2773 2.14035H4.71645V4.14035H10.2773V2.14035ZM5.71645 3.14035V2.97331H3.71645V3.14035H5.71645ZM5.71645 2.97331C5.71645 1.82396 6.57602 1 7.50002 1V-1C5.34645 -1 3.71645 0.848684 3.71645 2.97331H5.71645ZM7.50002 1C8.42058 1 9.28359 1.82029 9.28359 2.97331H11.2836C11.2836 0.838989 9.64451 -1 7.50002 -1V1ZM9.28359 2.97331V3.14035H11.2836V2.97331H9.28359ZM10.2836 2.14035H10.2773V4.14035H10.2836V2.14035ZM5.02921 3.80627H9.95831V1.80627H5.02921V3.80627ZM10.9566 2.74729C10.8477 0.904555 9.39054 -0.665921 7.49376 -0.665921V1.33408C8.21166 1.33408 8.90629 1.95518 8.96006 2.86525L10.9566 2.74729ZM7.48865 -0.665908C5.60016 -0.656256 4.1401 0.899796 4.03095 2.74729L6.02747 2.86525C6.08095 1.95994 6.77268 1.33778 7.49887 1.33407L7.48865 -0.665908Z" fill="black" mask="url(#path-7-inside-4_0_36)"/>
</svg>
