<svg width="9" height="9" viewBox="0 0 9 9" fill="none" xmlns="http://www.w3.org/2000/svg">
<path d="M7.9228 3.21795V0.894326C7.9228 0.597118 7.70269 0.353948 7.43367 0.353948H6.94455C6.67553 0.353948 6.45542 0.597118 6.45542 0.894326V1.75893L4.82663 0.137796C4.64076 -0.0459322 4.35707 -0.0459322 4.1712 0.137796L0.0821009 4.20684C-0.0842021 4.36896 0.0185144 4.67697 0.243513 4.67697H1.07503V8.45962C1.07503 8.75683 1.29513 9 1.56415 9H3.52066V6.29811C3.52066 6.0009 3.74077 5.75773 4.00979 5.75773H4.98804C5.25706 5.75773 5.47717 6.0009 5.47717 6.29811V9H7.43367C7.70269 9 7.9228 8.75683 7.9228 8.45962V4.67697H8.75431C8.97931 4.67697 9.08692 4.36896 8.91573 4.20684L7.9228 3.21795ZM3.52066 3.59622C3.52066 3.0018 3.96087 2.51546 4.49891 2.51546C5.03695 2.51546 5.47717 3.0018 5.47717 3.59622H3.52066Z" fill="#414042"/>
</svg>
